HIERARCHY
ROOT hip
{
  OFFSET 0.0 0.0 0.0
  CHANNELS 6 Xposition Yposition Zposition Zrotation Yrotation Xrotation
  JOINT torso
  {
    OFFSET 0.0 0.0 0.0
    CHANNELS 3 Zrotation Xrotation Yrotation
    JOINT neck
    {
      OFFSET -31.42098999999993 328.8025209999999 74.3554680000002
      CHANNELS 3 Zrotation Xrotation Yrotation
      JOINT head
      {
        OFFSET 3.3519900000001144 303.81732099999994 206.53942900000015
        CHANNELS 3 Zrotation Xrotation Yrotation
        End Site
        {
          OFFSET 0.0 0.0 0.0
        }
      }
    }
    JOINT left_collar
    {
      OFFSET -31.42098999999993 328.8025209999999 74.3554680000002
      CHANNELS 3 Zrotation Xrotation Yrotation
      JOINT left_upper_arm
      {
        OFFSET -124.490479 -8.162841999999841 8.226441000000023
        CHANNELS 3 Zrotation Xrotation Yrotation
        JOINT left_forearm
        {
          OFFSET -253.595764 -1.5758060000000569 105.0729980000001
          CHANNELS 3 Zrotation Xrotation Yrotation
          JOINT left_hand
          {
            OFFSET -269.48803699999996 0.1478270000000066 -55.346191999999974
            CHANNELS 3 Zrotation Xrotation Yrotation
            End Site
            {
              OFFSET 0.0 0.0 0.0
            }
          }
        }
      }
    }
    JOINT right_collar
    {
      OFFSET -31.42098999999993 328.8025209999999 74.3554680000002
      CHANNELS 3 Zrotation Xrotation Yrotation
      JOINT right_upper_arm
      {
        OFFSET 162.02484099999998 0.46441600000002836 2.2303470000001653
        CHANNELS 3 Zrotation Xrotation Yrotation
        JOINT right_forearm
        {
          OFFSET 240.01246700000004 -25.835875999999985 121.34179699999959
          CHANNELS 3 Zrotation Xrotation Yrotation
          JOINT right_hand
          {
            OFFSET 252.48539699999992 18.910399999999868 -67.53466800000001
            CHANNELS 3 Zrotation Xrotation Yrotation
            End Site
            {
              OFFSET 0.0 0.0 0.0
            }
          }
        }
      }
    }
  }
}
MOTION
Frames: 19
Frame Time: 0.01
-449.89372157942876 262.9745852700427 651.9222566952191 -5.908134905917796 -5.935685401805374 60.614025420101356 -1.5645874441687253 3.6754473699903762 0.6589017311665446 -0.4421930909125665 -13.571721724032173 0.46599018712796975 0.0 0.0 0.0 1.0941523381579907 0.10511176259300828 -0.4355070830437025 48.610500151632 10.40062383703193 22.009247577960256 46.07779528215713 -5.2012595053219846 -11.030097241871625 0.0 0.0 0.0 -1.837170160299171 0.09405753386618508 5.214689978788385 -50.899154504745376 22.36691171163636 -8.871124722356877 7.357395779350773 1.293924447365731 4.799295670422043 0.0 0.0 0.0
-449.97627450150947 262.9639347768739 651.9253923434793 -5.903439602569181 -5.940030598187673 60.61440889243186 -1.5619533667102514 3.673016750616915 0.6581851789636518 -0.4415030481843682 -13.570203389701122 0.46546290760623715 0.0 0.0 0.0 1.0970255408209442 0.10499867333133757 -0.4313323147495878 48.60911628450021 10.397806488174181 22.01448669514794 46.08165890981275 -5.203151777300528 -11.026815586236351 0.0 0.0 0.0 -1.8363919129162583 0.0940658807916942 5.218819389885516 -50.83087865025723 22.34643859155126 -8.846964513120863 7.3220571543759645 1.281000600172291 4.8342948754720565 0.0 0.0 0.0
-450.0552376003539 262.9524034823785 651.9234308330954 -5.898462372807414 -5.943340574795007 60.613973705515846 -1.5590946437274387 3.669413193063036 0.6573264400265202 -0.4411232717566597 -13.568256425969698 0.4651600731330559 0.0 0.0 0.0 1.0998063825031323 0.10488533876545587 -0.427242854175209 48.60686000033173 10.395024360821544 22.019201759445476 46.084910965304005 -5.2053060665371484 -11.0227439554621 0.0 0.0 0.0 -1.835550359908015 0.0940691330718149 5.222852073777644 -50.76299481301849 22.327122598416 -8.821362174698821 7.287919288485149 1.2683024043199234 4.869785159462279 0.0 0.0 0.0
-450.1303767063534 262.9399121567778 651.9164071672699 -5.893129363269479 -5.945584935923066 60.61283699266306 -1.5560419589537924 3.664605507800253 0.656328774130331 -0.4410315671142353 -13.565967619335638 0.46506626186068734 0.0 0.0 0.0 1.1024486367194144 0.10477733900513528 -0.4233554767847668 48.60374957536211 10.3923242477622 22.02330350731914 46.08750495447983 -5.207655195303916 -11.01802540896301 0.0 0.0 0.0 -1.8346636994039671 0.09406633578834865 5.22663397066477 -50.696146053682355 22.309770967832222 -8.793620588988613 7.25672919291871 1.2564612142263616 4.9040635512552 0.0 0.0 0.0
-450.2015006374307 262.9264008722355 651.9043903150106 -5.88736152664723 -5.946760800207316 60.6111151410711 -1.5528350388484096 3.658598631218892 0.6552002245829123 -0.44119867891479153 -13.563435397237441 0.4651609640716217 0.0 0.0 0.0 1.104906682846128 0.10468016084622299 -0.41978494657149695 48.599828121207224 10.38974994322451 22.026721728320588 46.08940703121697 -5.210129315147101 -11.01281282721573 0.0 0.0 0.0 -1.8337498815013737 0.09405653062440712 5.230011300295686 -50.630946991706914 22.295158349918623 -8.763065935162206 7.230151204122443 1.2460798098728094 4.935467622695652 0.0 0.0 0.0
-450.2684644990512 262.91183011989057 651.8874812833283 -5.881077077883578 -5.9468919066648285 60.60891993087455 -1.549521407063723 3.6514328075950355 0.6539533171078113 -0.4415899620464013 -13.560767683190194 0.4654197945339942 0.0 0.0 0.0 1.1071371210002487 0.10459900909745325 -0.41664005511101787 48.59516273817465 10.387340812240659 22.029407840385957 46.09059683588849 -5.212657515998577 -11.007265428359181 0.0 0.0 0.0 -1.8328266886178022 0.09403881551540982 5.232834731776138 -50.56796004371711 22.283988818252645 -8.72908628882802 7.2096826360378 1.237702991629213 4.96245857132178 0.0 0.0 0.0
-450.33117185324505 262.8961814910916 651.8658106512123 -5.874194168515706 -5.946026951934874 60.60635484259078 -1.5461548400820568 3.6431817188715496 0.6526046131271275 -0.4421671831014878 -13.558079375579702 0.4658157968112775 0.0 0.0 0.0 1.1091004901144623 0.10453862691179126 -0.41401970370292385 48.58984307103357 10.385130607240363 22.031336647483364 46.09106763082572 -5.215169332089246 -11.001545326804129 0.0 0.0 0.0 -1.8319119316243164 0.09401241166530507 5.234963639047449 -50.50767295959792 22.276860874880306 -8.691167092106467 7.196576187469733 1.231791215116544 4.983697889040424 0.0 0.0 0.0
-450.3895757418978 262.87945797237273 651.8395356218326 -5.8666336818414635 -5.944237242432333 60.60351170852037 -1.5427935788301737 3.6339496774565645 0.651174136632574 -0.44289034299238483 -13.555489566567239 0.46632075989402716 0.0 0.0 0.0 1.110762991709535 0.10450313499849107 -0.4120092439165185 48.58397930937606 10.383146542097009 22.03250727953811 46.09082575366305 -5.217596125067162 -10.995814182231502 0.0 0.0 0.0 -1.8310237251151094 0.09397673416172843 5.236270319828005 -50.4504790113384 22.27423713157989 -8.648921898280662 7.1917732035044075 1.2286983202032755 4.998114122475386 0.0 0.0 0.0
-450.4436785835525 262.86168391409046 651.8088366748897 -5.8583220514484795 -5.941613759357917 60.60046786707303 -1.5394983579981427 3.623868018818928 0.6496846969567784 -0.44371941113897745 -13.553118630191808 0.4669064675109 0.0 0.0 0.0 1.1120981122609173 0.10449589830102421 -0.41067728125796715 48.57769968581413 10.381408621828832 22.032943344204494 46.08988945726509 -5.21987233691997 -10.990229972779339 0.0 0.0 0.0 -1.8301807904268244 0.0939314615783963 5.236644057457465 -50.39666115555446 22.27642017306092 -8.602117005433172 7.195851499954601 1.2286541981101693 5.004956677314275 0.0 0.0 0.0
-450.49353099748504 262.8429047422057 651.7739139235042 -5.849194006857757 -5.938263745142388 60.597283950692685 -1.536330322916465 3.613090845918945 0.6481611327287234 -0.4446158681198742 -13.551085312965078 0.4675458053774063 0.0 0.0 0.0 1.11308803694044 0.10451942669857238 -0.4100731186556708 48.57114753530406 10.379929217356857 22.03269234255908 46.08828724739605 -5.221936613857717 -10.984943918987614 0.0 0.0 0.0 -1.8294027228113845 0.09387659927886888 5.2359949079719454 -50.3463812469907 22.2835357476016 -8.550688946112308 7.208990553443376 1.2317529524907547 5.003834366850999 0.0 0.0 0.0
-450.5392296405517 262.8231864877784 651.7349832927003 -5.839195153748407 -5.934306926576623 60.594002402562 -1.5333489095821289 3.6017902854214343 0.6466295043181283 -0.44554397065887835 -13.54950395243817 0.46821366418023186 0.0 0.0 0.0 1.1137247563449484 0.10457531374736101 -0.4102249747658204 48.56447798647081 10.378712868499614 22.031824416918024 46.08605586340062 -5.223732805460644 -10.980097588358337 0.0 0.0 0.0 -1.8287101541999098 0.09381253091503561 5.234257098055056 -50.2996749966358 22.29552394468341 -8.494754259954185 7.2309556456064135 1.2379467975154934 4.994737389078602 0.0 0.0 0.0
-450.58091416610955 262.80261520364604 651.6922726387768 -5.828284303894387 -5.929871493952571 60.59064677860973 -1.5306097639175886 3.5901514168269117 0.6451162626111517 -0.446471681907033 -13.548481927645192 0.4688875974128237 0.0 0.0 0.0 1.1140107841634845 0.10466421466057244 -0.41113906129638106 48.55785435985424 10.377756294115546 22.03043050959144 46.08323807121271 -5.225210841688871 -10.975820222287322 0.0 0.0 0.0 -1.8281247475776727 0.09374005296771004 5.231391921350482 -50.256452948657724 22.31213852530637 -8.434611443109802 7.261101350295124 1.2470456789602913 4.978042441303547 0.0 0.0 0.0
-450.618763428343 262.7812963185027 651.6460179257372 -5.816435481404828 -5.9250899595112205 60.58722185227578 -1.5281627718426152 3.5783670328389467 0.6436474212473093 -0.4473712488576314 -13.548117412611177 0.469548221579456 0.0 0.0 0.0 1.113959426815857 0.10478586201861935 -0.4127995492355956 48.55144434780746 10.377048586035034 22.028620016050382 46.07988044997531 -5.22632748639556 -10.97222634082459 0.0 0.0 0.0 -1.8276689729041484 0.09366038807096574 5.2273900194324145 -50.216507360400975 22.33295417895555 -8.370735317259975 7.298393795390618 1.2587224585253736 4.954501499359087 0.0 0.0 0.0
-450.6529910633301 262.7593539464778 651.5964595715504 -5.803639545056411 -5.920095023427846 60.58371450197467 -1.5260502649824017 3.5666323852192767 0.6422477582043185 -0.4482194510309579 -13.54849746802485 0.4701793771499508 0.0 0.0 0.0 1.1135945746996798 0.10493911547154565 -0.41516940157840965 48.545416047131845 10.376571563766772 22.026518013793183 46.07603135114466 -5.227046962765993 -10.969413688451372 0.0 0.0 0.0 -1.8273656365258115 0.09357517423018309 5.222272930661415 -50.179524527326336 22.357381235365672 -8.303764226788422 7.341450464270241 1.2725234640049004 4.92521526173028 0.0 0.0 0.0
-450.6838405858386 262.73693013160266 651.5438390740612 -5.789905379226529 -5.915015579977641 60.580095327140704 -1.5243054601738362 3.5551400659402916 0.6409400713291535 -0.4489975807625386 -13.549696476047197 0.470768095046345 0.0 0.0 0.0 1.1129500165830666 0.10512204018473598 -0.4181920045205578 48.53993391041164 10.37630026981072 22.024262140350103 46.071739191122205 -5.227341444736134 -10.967461582790285 0.0 0.0 0.0 -1.8272371647504686 0.09348642884020521 5.216093790010197 -50.14510180192022 22.384687222943196 -8.234480498917055 7.388595840675377 1.2878842202932201 4.891592452736104 0.0 0.0 0.0
-450.7115801506687 262.7141839694848 651.4883960203128 -5.775260617503082 -5.9099729977330115 60.57632090994262 -1.5229511845075026 3.5440751677799742 0.639744510996159 -0.44969123582991205 -13.551774904590731 0.4713044282840962 0.0 0.0 0.0 1.1120683107218314 0.1053320080327411 -0.42179349300004737 48.535154677662014 10.3762035894836 22.02199918414386 46.067051206955476 -5.227191408080323 -10.96642972028814 0.0 0.0 0.0 -1.8273046751862394 0.09339648853842816 5.20893707176625 -50.11276832087981 22.414024566109614 -8.163784595837114 7.437930829001526 1.3041501632749761 4.855296280633294 0.0 0.0 0.0
-450.73649713698103 262.691290520987 651.4303655693329 -5.759751874008546 -5.905077803273996 60.57233661727208 -1.5219989302667145 3.533610859954058 0.6386780111219662 -0.450290005123166 -13.554778380050111 0.4717812082556154 0.0 0.0 0.0 1.1109992753990128 0.1055658154433071 -0.42588564057696104 48.53122334849471 10.376244983191356 22.019881444037154 46.06201276258912 -5.226585834517678 -10.966357481592803 0.0 0.0 0.0 -1.827586901253877 0.09330792808042823 5.200917288141324 -50.082008294529906 22.44446359380552 -8.092663444628869 7.487413519357171 1.3206020447509088 4.818179518358051 0.0 0.0 0.0
-450.75889271852776 262.6684394210849 651.3699764753899 -5.7434444682714805 -5.900426886531127 60.56807982117796 -1.5214482753054082 3.52390450133057 0.6377538370290629 -0.45078711136608407 -13.558737047961431 0.4721937727812043 0.0 0.0 0.0 1.1097981847872562 0.10581981205652452 -0.4303691666863334 48.52826925909673 10.376383322662733 22.018062909424458 46.056667243081954 -5.225522262063733 -10.967263764901988 0.0 0.0 0.0 -1.8280990580591208 0.0932234631177206 5.192176590533173 -50.05228563367172 22.47502986008267 -8.022153602243554 7.534948455416204 1.336485531633201 4.782209999752869 0.0 0.0 0.0
-450.77907657803286 262.645833093469 651.3074496894313 -5.726421640178509 -5.8961013272990295 60.563483404200355 -1.521286694687428 3.515094395235228 0.6369812651411724 -0.4511790508753134 -13.563665205792393 0.4725396953313177 0.0 0.0 0.0 1.108523771220754 0.10609003468451181 -0.43513730401792056 48.526402339455835 10.376573825753878 22.01669531342443 46.051056518155654 -5.224006675916997 -10.969147356393036 0.0 0.0 0.0 -1.8288517456361246 0.09314584263381723 5.182881266335316 -50.023068678726105 22.50474453705684 -7.95330021954011 7.578481051558678 1.351044175511873 4.749388836416672 0.0 0.0 0.0
